<?xml version="1.0" encoding="utf-8" ?>
<svg xmlns="http://www.w3.org/2000/svg" xmlns:xlink="http://www.w3.org/1999/xlink" width="20" height="20" viewBox="0 0 20 20">
	<defs>
		<clipPath id="clipPath3482059175">
			<path d="M0 0L20 0L20 20L0 20L0 0Z" fill-rule="nonzero" transform="matrix(1 0 0 1 0 0)"/>
		</clipPath>
	</defs>
	<g clip-path="url(#clipPath3482059175)">
		<defs>
			<clipPath id="clipPath2790367000">
				<path d="M0 0L20 0L20 20L0 20L0 0Z" fill-rule="nonzero" transform="matrix(1 0 0 1 -0 -0)"/>
			</clipPath>
		</defs>
		<g clip-path="url(#clipPath2790367000)">
			<path d="M-0.833333 0C-0.833333 0.460233 -0.460233 0.833333 0 0.833333L15 0.833333C15.4602 0.833333 15.8333 0.460233 15.8333 0C15.8333 -0.460233 15.4602 -0.833333 15 -0.833333L0 -0.833333C-0.460233 -0.833333 -0.833333 -0.460233 -0.833333 0Z" fill-rule="evenodd" transform="matrix(1 0 0 1 2.5 5)" fill="rgb(220, 38, 38)"/>
			<path d="M2.3989 -0.101101Q1.66667 0.631133 1.66667 1.66667L1.66667 3.33333C1.66667 3.79357 2.03977 4.16667 2.5 4.16667C2.96023 4.16667 3.33333 3.79357 3.33333 3.33333L3.33333 1.66667Q3.33333 1.32149 3.57741 1.07741Q3.82149 0.833333 4.16667 0.833333L7.5 0.833333Q7.84518 0.833333 8.08926 1.07741Q8.33333 1.32149 8.33333 1.66667L8.33333 3.33333C8.33333 3.79357 8.70643 4.16667 9.16667 4.16667C9.6269 4.16667 10 3.79357 10 3.33333L10 1.66666Q10 0.63113 9.26777 -0.101101Q8.53553 -0.833333 7.5 -0.833333L4.16667 -0.833333Q3.13113 -0.833333 2.3989 -0.101101ZM-0.833333 3.33333C-0.833333 2.8731 -0.460233 2.5 0 2.5C0.460233 2.5 0.833333 2.8731 0.833333 3.33333L0.833333 15Q0.833333 15.3452 1.07741 15.5893Q1.32149 15.8333 1.66667 15.8333L10 15.8333Q10.3452 15.8333 10.5893 15.5893Q10.8333 15.3452 10.8333 15L10.8333 3.33333C10.8333 2.8731 11.2064 2.5 11.6667 2.5C12.1269 2.5 12.5 2.8731 12.5 3.33333L12.5 15Q12.5 16.0355 11.7678 16.7678Q11.0355 17.5 10 17.5L1.66667 17.5Q0.631129 17.5 -0.101101 16.7678Q-0.833333 16.0355 -0.833333 15L-0.833333 3.33333Z" fill-rule="evenodd" transform="matrix(1 0 0 1 4.16667 1.66667)" fill="rgb(220, 38, 38)"/>
			<path d="M0 -0.833333C-0.460233 -0.833333 -0.833333 -0.460233 -0.833333 0L-0.833333 5C-0.833333 5.46023 -0.460233 5.83333 0 5.83333C0.460233 5.83333 0.833333 5.46023 0.833333 5L0.833333 0C0.833333 -0.460233 0.460233 -0.833333 0 -0.833333Z" fill-rule="evenodd" transform="matrix(1 0 0 1 8.33333 9.16667)" fill="rgb(220, 38, 38)"/>
			<path d="M0 -0.833333C-0.460233 -0.833333 -0.833333 -0.460233 -0.833333 0L-0.833333 5C-0.833333 5.46023 -0.460233 5.83333 0 5.83333C0.460233 5.83333 0.833333 5.46023 0.833333 5L0.833333 0C0.833333 -0.460233 0.460233 -0.833333 0 -0.833333Z" fill-rule="evenodd" transform="matrix(1 0 0 1 11.6667 9.16667)" fill="rgb(220, 38, 38)"/>
		</g>
	</g>
</svg>
