<?xml version="1.0" encoding="utf-8" ?>
<svg xmlns="http://www.w3.org/2000/svg" xmlns:xlink="http://www.w3.org/1999/xlink" width="20" height="20" viewBox="0 0 20 20">
	<defs>
		<clipPath id="clipPath2121746248">
			<path d="M0 0L20 0L20 20L0 20L0 0Z" fill-rule="nonzero" transform="matrix(1 0 0 1 -0 -0)"/>
		</clipPath>
	</defs>
	<g clip-path="url(#clipPath2121746248)">
		<path d="M11.9107 0.101101Q12.8452 -0.833333 14.1667 -0.833333Q15.4882 -0.833333 16.4226 0.1011Q17.357 1.03553 17.357 2.35702Q17.357 3.67851 16.4226 4.61295L5.17259 15.8629Q5.0161 16.0194 4.8026 16.0777L0.219265 17.3277Q0.14008 17.3493 0.0582047 17.355Q-0.0236711 17.3607 -0.105092 17.3504Q-0.186513 17.34 -0.26435 17.314Q-0.342187 17.2879 -0.413449 17.2472Q-0.484711 17.2065 -0.54666 17.1527Q-0.608608 17.0988 -0.658862 17.0339Q-0.709117 16.969 -0.745745 16.8956Q-0.782374 16.8221 -0.80397 16.743Q-0.863769 16.5237 -0.80397 16.3044L0.44603 11.7211Q0.504259 11.5076 0.660744 11.3511L11.9107 0.1011L11.9107 0.101101ZM13.0893 1.27961L1.83926 12.5296L1.25 11.9404L2.05397 12.1596L0.80397 16.743L0 16.5237L-0.219265 15.7197L4.36407 14.4697L4.58333 15.2737L3.99408 14.6844L15.2441 3.43443Q15.6904 2.98816 15.6904 2.35702Q15.6904 1.72589 15.2441 1.27961Q14.7978 0.833333 14.1667 0.833333Q13.5355 0.833333 13.0893 1.27961L13.0893 1.27961Z" fill-rule="nonzero" transform="matrix(1 0 0 1 1.66667 1.80964)" fill="rgb(37, 99, 235)"/>
	</g>
</svg>
