<?xml version="1.0" encoding="utf-8" ?>
<svg xmlns="http://www.w3.org/2000/svg" xmlns:xlink="http://www.w3.org/1999/xlink" width="40" height="40" viewBox="0 0 40 40">
	<path d="M8 0C3.58172 0 0 3.58172 0 8L0 32C0 36.4183 3.58172 40 8 40L32 40C36.4183 40 40 36.4183 40 32L40 8C40 3.58172 36.4183 0 32 0L8 0Z" fill-rule="nonzero" transform="matrix(1 0 0 1 0 0)" fill="rgb(243, 232, 255)"/>
	<defs>
		<clipPath id="clipPath0315363176">
			<path d="M0 0L24 0L24 24L0 24L0 0Z" fill-rule="nonzero" transform="matrix(1 0 0 1 8 8)"/>
		</clipPath>
	</defs>
	<g clip-path="url(#clipPath0315363176)">
		<defs>
			<clipPath id="clipPath2638349174">
				<path d="M0 0L24 0L24 24L0 24L0 0Z" fill-rule="nonzero" transform="matrix(1 0 0 1 8 8)"/>
			</clipPath>
		</defs>
		<g clip-path="url(#clipPath2638349174)">
			<path d="M10.875 21.0007C7.87195 21.0007 5.30869 19.939 3.18521 17.8155C1.06174 15.692 0 13.1287 0 10.1257C0 5.71944 2.53125 1.76882 6.45047 0.0630342C6.5918 0.00143665 6.73821 -0.0150157 6.8897 0.0136773C7.04118 0.0423703 7.17143 0.111226 7.28045 0.220244C7.38946 0.329263 7.45832 0.459513 7.48701 0.610995C7.51571 0.762477 7.49925 0.908886 7.43766 1.05022C6.98766 2.08335 6.75 3.40663 6.75 4.87569C6.75 10.0451 10.9556 14.2507 16.125 14.2507C17.5941 14.2507 18.9173 14.013 19.9505 13.563C20.0918 13.5014 20.2382 13.485 20.3897 13.5137C20.5412 13.5424 20.6714 13.6112 20.7804 13.7202C20.8895 13.8293 20.9583 13.9595 20.987 14.111C21.0157 14.2625 20.9993 14.4089 20.9377 14.5502C19.2319 18.4694 15.2812 21.0007 10.875 21.0007Z" fill-rule="nonzero" transform="matrix(1 0 0 1 9.5 9.49931)" fill="rgb(147, 51, 234)"/>
		</g>
	</g>
</svg>
