<?xml version="1.0" encoding="utf-8" ?>
<svg xmlns="http://www.w3.org/2000/svg" xmlns:xlink="http://www.w3.org/1999/xlink" width="20" height="20" viewBox="0 0 20 20">
	<path d="M6.25 0C5.55964 0 4.97039 0.278946 4.48223 0.836838C3.99408 1.39473 3.75 2.06816 3.75 2.85714L3.75 5.71429L2.5 5.71429C1.80964 5.71429 1.22039 5.99323 0.732233 6.55112C0.244078 7.10902 0 7.78245 0 8.57143L0 12.8571C0 13.6461 0.244078 14.3196 0.732233 14.8774C1.22039 15.4353 1.80964 15.7143 2.5 15.7143L3.75 15.7143L3.75 17.1429C3.75 17.9318 3.99408 18.6053 4.48223 19.1632C4.97039 19.7211 5.55964 20 6.25 20L13.75 20C14.4404 20 15.0296 19.7211 15.5178 19.1632C16.0059 18.6053 16.25 17.9318 16.25 17.1429L16.25 15.7143L17.5 15.7143C18.1904 15.7143 18.7796 15.4353 19.2678 14.8774C19.7559 14.3196 20 13.6461 20 12.8571L20 8.57143C20 7.78245 19.7559 7.10902 19.2678 6.55112C18.7796 5.99323 18.1904 5.71429 17.5 5.71429L16.25 5.71429L16.25 2.85714C16.25 2.06816 16.0059 1.39473 15.5178 0.836838C15.0296 0.278946 14.4404 0 13.75 0L6.25 0ZM5 2.85714C5 2.46265 5.12204 2.12594 5.36612 1.84699C5.61019 1.56804 5.90482 1.42857 6.25 1.42857L13.75 1.42857C14.0952 1.42857 14.3898 1.56804 14.6339 1.84699C14.878 2.12594 15 2.46265 15 2.85714L15 5.71429L5 5.71429L5 2.85714ZM6.25 10C5.55964 10 4.97039 10.2789 4.48223 10.8368C3.99408 11.3947 3.75 12.0682 3.75 12.8571L3.75 14.2857L2.5 14.2857C2.15482 14.2857 1.86019 14.1462 1.61612 13.8673C1.37204 13.5883 1.25 13.2516 1.25 12.8571L1.25 8.57143C1.25 8.17694 1.37204 7.84022 1.61612 7.56128C1.86019 7.28233 2.15482 7.14286 2.5 7.14286L17.5 7.14286C17.8452 7.14286 18.1398 7.28233 18.3839 7.56128C18.628 7.84022 18.75 8.17694 18.75 8.57143L18.75 12.8571C18.75 13.2516 18.628 13.5883 18.3839 13.8673C18.1398 14.1462 17.8452 14.2857 17.5 14.2857L16.25 14.2857L16.25 12.8571C16.25 12.0682 16.0059 11.3947 15.5178 10.8368C15.0296 10.2789 14.4404 10 13.75 10L6.25 10ZM15 12.8571L15 17.1429C15 17.5373 14.878 17.8741 14.6339 18.153C14.3898 18.432 14.0952 18.5714 13.75 18.5714L6.25 18.5714C5.90482 18.5714 5.61019 18.432 5.36612 18.153C5.12204 17.8741 5 17.5373 5 17.1429L5 12.8571C5 12.4627 5.12204 12.1259 5.36612 11.847C5.61019 11.568 5.90482 11.4286 6.25 11.4286L13.75 11.4286C14.0952 11.4286 14.3898 11.568 14.6339 11.847C14.878 12.1259 15 12.4627 15 12.8571Z" fill-rule="nonzero" transform="matrix(1 0 0 1 0 0)" fill="rgb(75, 85, 99)"/>
</svg>
