<?xml version="1.0" encoding="utf-8" ?>
<svg xmlns="http://www.w3.org/2000/svg" xmlns:xlink="http://www.w3.org/1999/xlink" width="20" height="20" viewBox="0 0 20 20">
	<defs>
		<clipPath id="clipPath2135861059">
			<path d="M0 0L20 0L20 20L0 20L0 0Z" fill-rule="nonzero" transform="matrix(1 0 0 1 0 0)"/>
		</clipPath>
	</defs>
	<g clip-path="url(#clipPath2135861059)">
		<defs>
			<clipPath id="clipPath7505667700">
				<path d="M0 0L20 0L20 20L0 20L0 0Z" fill-rule="nonzero" transform="matrix(1 0 0 1 -0 -0)"/>
			</clipPath>
		</defs>
		<g clip-path="url(#clipPath7505667700)">
			<path d="M0 15L0 0L0.703125 0L0.703125 15L0 15ZM1.0491 14.9893L1.0491 0L1.40625 0L1.40625 14.9893L1.0491 14.9893ZM2.10938 14.9893L2.10938 0L2.45535 0L2.45535 14.9893L2.10938 14.9893ZM3.8616 14.9893L3.8616 0L4.20758 0L4.20758 14.9893L3.8616 14.9893ZM5.26785 14.9893L5.26785 0L5.9598 0L5.9598 14.9893L5.26785 14.9893ZM7.02008 14.9893L7.02008 0L7.36605 0L7.36605 14.9893L7.02008 14.9893ZM7.7232 14.9893L7.7232 0L8.06918 0L8.06918 14.9893L7.7232 14.9893ZM8.42633 14.9893L8.42633 0L8.7723 0L8.7723 14.9893L8.42633 14.9893ZM9.82144 14.9893L9.82144 0L10.5246 0L10.5246 14.9893L9.82144 14.9893ZM11.5737 14.9893L11.5737 0L12.2768 0L12.2768 14.9893L11.5737 14.9893ZM12.9799 14.9893L12.9799 0L13.683 0L13.683 14.9893L12.9799 14.9893ZM14.3862 14.9893L14.3862 0L15.0893 0L15.0893 14.9893L14.3862 14.9893ZM15.4353 14.9893L15.4353 0L16.1384 0L16.1384 14.9893L15.4353 14.9893ZM17.1987 14.9893L17.1987 0L18.2478 0L18.2478 14.9893L17.1987 14.9893ZM18.5937 14.9893L18.5937 0L18.9509 0L18.9509 14.9893L18.5937 14.9893ZM19.2969 15L19.2969 0L20 0L20 15L19.2969 15Z" fill-rule="nonzero" transform="matrix(1 0 0 1 0 2.5)" fill="rgb(75, 85, 99)"/>
		</g>
	</g>
</svg>
