<?xml version="1.0" encoding="utf-8" ?>
<svg xmlns="http://www.w3.org/2000/svg" xmlns:xlink="http://www.w3.org/1999/xlink" width="20" height="20" viewBox="0 0 20 20">
	<defs>
		<clipPath id="clipPath7943964933">
			<path d="M0 0L20 0L20 20L0 20L0 0Z" fill-rule="nonzero" transform="matrix(1 0 0 1 0 0)"/>
		</clipPath>
	</defs>
	<g clip-path="url(#clipPath7943964933)">
		<defs>
			<clipPath id="clipPath7638305440">
				<path d="M0 0L20 0L20 20L0 20L0 0Z" fill-rule="nonzero" transform="matrix(1 0 0 1 -0 -0)"/>
			</clipPath>
		</defs>
		<g clip-path="url(#clipPath7638305440)">
			<path d="M6.66667 -0.833333Q8.19199 -0.833333 9.58626 -0.243604Q10.9323 0.32574 11.97 1.36337Q13.0076 2.40099 13.5769 3.74707Q14.1667 5.14135 14.1667 6.66667Q14.1667 8.19199 13.5769 9.58626Q13.0076 10.9323 11.97 11.97Q10.9323 13.0076 9.58626 13.5769Q8.19198 14.1667 6.66667 14.1667Q5.14135 14.1667 3.74707 13.5769Q2.40099 13.0076 1.36337 11.97Q0.32574 10.9323 -0.243604 9.58626Q-0.833333 8.19198 -0.833333 6.66667Q-0.833333 5.14135 -0.243604 3.74707Q0.32574 2.40099 1.36337 1.36337Q2.40099 0.325741 3.74707 -0.243604Q5.14135 -0.833333 6.66667 -0.833333ZM6.66667 0.833333Q5.47933 0.833333 4.39633 1.2914Q3.34964 1.73411 2.54188 2.54188Q1.73411 3.34964 1.2914 4.39633Q0.833333 5.47933 0.833333 6.66667Q0.833333 7.85401 1.2914 8.93701Q1.73412 9.9837 2.54188 10.7915Q3.34964 11.5992 4.39633 12.0419Q5.47932 12.5 6.66667 12.5Q7.85401 12.5 8.93701 12.0419Q9.9837 11.5992 10.7915 10.7915Q11.5992 9.9837 12.0419 8.93701Q12.5 7.85401 12.5 6.66667Q12.5 5.47933 12.0419 4.39633Q11.5992 3.34964 10.7915 2.54188Q9.9837 1.73411 8.93701 1.2914Q7.85401 0.833333 6.66667 0.833333Z" fill-rule="nonzero" transform="matrix(1 0 0 1 2.5 2.5)" fill="rgb(156, 163, 175)"/>
			<path d="M-0.589256 -0.589256C-0.91469 -0.263821 -0.91469 0.263822 -0.589256 0.589256L3.03574 4.21426C3.36118 4.53969 3.88882 4.53969 4.21426 4.21426C4.53969 3.88882 4.53969 3.36118 4.21426 3.03574L0.589256 -0.589256C0.263821 -0.91469 -0.263822 -0.91469 -0.589256 -0.589256Z" fill-rule="evenodd" transform="matrix(1 0 0 1 13.875 13.875)" fill="rgb(156, 163, 175)"/>
		</g>
	</g>
</svg>
