<?xml version="1.0" encoding="utf-8" ?>
<svg xmlns="http://www.w3.org/2000/svg" xmlns:xlink="http://www.w3.org/1999/xlink" width="40" height="40" viewBox="0 0 40 40">
	<path d="M8 0C3.58172 0 0 3.58172 0 8L0 32C0 36.4183 3.58172 40 8 40L32 40C36.4183 40 40 36.4183 40 32L40 8C40 3.58172 36.4183 0 32 0L8 0Z" fill-rule="nonzero" transform="matrix(1 0 0 1 0 0)" fill="rgb(219, 234, 254)"/>
	<defs>
		<clipPath id="clipPath4578950981">
			<path d="M0 0L24 0L24 24L0 24L0 0Z" fill-rule="nonzero" transform="matrix(1 0 0 1 8 8)"/>
		</clipPath>
	</defs>
	<g clip-path="url(#clipPath4578950981)">
		<defs>
			<clipPath id="clipPath5746653872">
				<path d="M0 0L24 0L24 24L0 24L0 0Z" fill-rule="nonzero" transform="matrix(1 0 0 1 8 8)"/>
			</clipPath>
		</defs>
		<g clip-path="url(#clipPath5746653872)">
			<path d="M10.7812 4.3125C10.4965 4.3125 10.2534 4.21182 10.052 4.01045C9.85068 3.80909 9.75 3.56602 9.75 3.28125L9.75 1.03125C9.75 0.746478 9.85068 0.50341 10.052 0.302046C10.2534 0.100682 10.4965 0 10.7812 0C11.066 0 11.3091 0.100682 11.5105 0.302046C11.7118 0.50341 11.8125 0.746478 11.8125 1.03125L11.8125 3.28125C11.8125 3.56602 11.7118 3.80909 11.5105 4.01045C11.3091 4.21182 11.066 4.3125 10.7812 4.3125ZM10.7812 21.5625C10.4965 21.5625 10.2534 21.4618 10.052 21.2605C9.85068 21.0591 9.75 20.816 9.75 20.5312L9.75 18.2812C9.75 17.9965 9.85068 17.7534 10.052 17.552C10.2534 17.3507 10.4965 17.25 10.7812 17.25C11.066 17.25 11.3091 17.3507 11.5105 17.552C11.7118 17.7534 11.8125 17.9965 11.8125 18.2812L11.8125 20.5312C11.8125 20.816 11.7118 21.0591 11.5105 21.2605C11.3091 21.4618 11.066 21.5625 10.7812 21.5625ZM16.0847 6.50906C15.8762 6.50904 15.6853 6.45111 15.5119 6.33527C15.3385 6.21944 15.2119 6.06521 15.1321 5.87259C15.0523 5.67997 15.0327 5.48141 15.0733 5.2769C15.1139 5.0724 15.2079 4.8964 15.3553 4.74891L16.9463 3.15797C17.1484 2.96113 17.3905 2.86365 17.6726 2.86551C17.9547 2.86738 18.1955 2.96805 18.395 3.16754C18.5944 3.36702 18.6951 3.60782 18.697 3.88993C18.6988 4.17204 18.6014 4.41415 18.4045 4.61625L16.8136 6.20719C16.717 6.30397 16.6056 6.37852 16.4793 6.43083C16.3529 6.48315 16.2214 6.50923 16.0847 6.50906ZM3.88687 18.7069C3.67831 18.7069 3.48734 18.6489 3.31394 18.533C3.14055 18.4171 3.01396 18.2628 2.93418 18.0701C2.8544 17.8774 2.83488 17.6788 2.87561 17.4742C2.91634 17.2697 3.01046 17.0937 3.15797 16.9462L4.74891 15.3553C4.94946 15.1494 5.19344 15.0456 5.48085 15.0437C5.76825 15.0418 6.01357 15.1425 6.21681 15.3457C6.42004 15.5489 6.52071 15.7942 6.51883 16.0817C6.51695 16.3691 6.41307 16.613 6.20719 16.8136L4.61625 18.4045C4.51964 18.5014 4.40814 18.5761 4.28173 18.6285C4.15533 18.6809 4.02371 18.707 3.88687 18.7069ZM20.5312 11.8125L18.2812 11.8125C17.9965 11.8125 17.7534 11.7118 17.552 11.5105C17.3507 11.3091 17.25 11.066 17.25 10.7812C17.25 10.4965 17.3507 10.2534 17.552 10.052C17.7534 9.85068 17.9965 9.75 18.2812 9.75L20.5312 9.75C20.816 9.75 21.0591 9.85068 21.2605 10.052C21.4618 10.2534 21.5625 10.4965 21.5625 10.7812C21.5625 11.066 21.4618 11.3091 21.2605 11.5105C21.0591 11.7118 20.816 11.8125 20.5312 11.8125ZM3.28125 11.8125L1.03125 11.8125C0.746478 11.8125 0.50341 11.7118 0.302046 11.5105C0.100682 11.3091 0 11.066 0 10.7812C0 10.4965 0.100682 10.2534 0.302046 10.052C0.50341 9.85068 0.746478 9.75 1.03125 9.75L3.28125 9.75C3.56602 9.75 3.80909 9.85068 4.01045 10.052C4.21182 10.2534 4.3125 10.4965 4.3125 10.7812C4.3125 11.066 4.21182 11.3091 4.01045 11.5105C3.80909 11.7118 3.56602 11.8125 3.28125 11.8125ZM17.6756 18.7069C17.5388 18.707 17.4072 18.6809 17.2808 18.6285C17.1544 18.5761 17.0429 18.5014 16.9462 18.4045L15.3553 16.8136C15.1584 16.6115 15.0609 16.3694 15.0628 16.0873C15.0646 15.8051 15.1653 15.5643 15.3648 15.3648C15.5643 15.1653 15.8051 15.0646 16.0873 15.0628C16.3694 15.0609 16.6115 15.1584 16.8136 15.3553L18.4045 16.9463C18.552 17.0937 18.6462 17.2697 18.6869 17.4742C18.7276 17.6788 18.7081 17.8774 18.6283 18.0701C18.5485 18.2628 18.422 18.4171 18.2486 18.533C18.0752 18.6489 17.8842 18.7068 17.6756 18.7069ZM5.47781 6.50906C5.34107 6.50933 5.20953 6.4833 5.08319 6.43098C4.95685 6.37866 4.84542 6.30406 4.74891 6.20719L3.15797 4.61625C2.96113 4.41415 2.86364 4.17204 2.8655 3.88993C2.86736 3.60781 2.96803 3.36701 3.16752 3.16752C3.36701 2.96803 3.60781 2.86736 3.88993 2.8655C4.17204 2.86364 4.41415 2.96113 4.61625 3.15797L6.20719 4.74891C6.35456 4.8964 6.44856 5.0724 6.48918 5.2769C6.5298 5.48141 6.5102 5.67997 6.43038 5.87259C6.35056 6.06521 6.22397 6.21944 6.05061 6.33527C5.87725 6.45111 5.68631 6.50904 5.47781 6.50906ZM10.7812 15.5625C9.46094 15.5625 8.33399 15.0957 7.40039 14.1621C6.4668 13.2285 6 12.1016 6 10.7812C6 9.46094 6.4668 8.33399 7.40039 7.40039C8.33399 6.4668 9.46094 6 10.7812 6C12.1016 6 13.2285 6.4668 14.1621 7.40039C15.0957 8.33399 15.5625 9.46094 15.5625 10.7812C15.561 12.1009 15.0936 13.2273 14.1605 14.1605C13.2273 15.0936 12.1009 15.561 10.7812 15.5625Z" fill-rule="nonzero" transform="matrix(1 0 0 1 9.21875 9.21875)" fill="rgb(37, 99, 235)"/>
		</g>
	</g>
</svg>
