<?xml version="1.0" encoding="utf-8" ?>
<svg xmlns="http://www.w3.org/2000/svg" xmlns:xlink="http://www.w3.org/1999/xlink" width="40" height="40" viewBox="0 0 40 40">
	<path d="M8 0C3.58172 0 0 3.58172 0 8L0 32C0 36.4183 3.58172 40 8 40L32 40C36.4183 40 40 36.4183 40 32L40 8C40 3.58172 36.4183 0 32 0L8 0Z" fill-rule="nonzero" transform="matrix(1 0 0 1 0 0)" fill="rgb(220, 252, 231)"/>
	<defs>
		<clipPath id="clipPath5431110649">
			<path d="M0 0L24 0L24 24L0 24L0 0Z" fill-rule="nonzero" transform="matrix(1 0 0 1 8 8)"/>
		</clipPath>
	</defs>
	<g clip-path="url(#clipPath5431110649)">
		<defs>
			<clipPath id="clipPath7774796523">
				<path d="M0 0L24 0L24 24L0 24L0 0Z" fill-rule="nonzero" transform="matrix(1 0 0 1 8 8)"/>
			</clipPath>
		</defs>
		<g clip-path="url(#clipPath7774796523)">
			<path d="M11.4705 0.220341C11.617 0.0734469 11.794 0 12.0015 0C12.209 0 12.386 0.0734469 12.5325 0.220341L14.7825 2.47034C14.9291 2.61697 15.0024 2.79397 15.0024 3.00134C15.0024 3.20871 14.9291 3.38571 14.7825 3.53234C14.6359 3.67897 14.4589 3.75229 14.2515 3.75229C14.0441 3.75229 13.8671 3.67897 13.7205 3.53234L12.7515 2.56184L12.7515 5.25134C12.7515 5.45845 12.6783 5.63522 12.5318 5.78167C12.3854 5.92812 12.2086 6.00134 12.0015 6.00134C11.7944 6.00134 11.6176 5.92812 11.4712 5.78167C11.3247 5.63522 11.2515 5.45845 11.2515 5.25134L11.2515 2.56184L10.2825 3.53234C10.1359 3.67897 9.95887 3.75229 9.7515 3.75229C9.54413 3.75229 9.36713 3.67897 9.2205 3.53234C9.07387 3.38571 9.00055 3.20871 9.00055 3.00134C9.00055 2.79397 9.07387 2.61697 9.2205 2.47034L11.4705 0.220341ZM3.516 5.01584C3.66244 4.86945 3.83919 4.79625 4.04625 4.79625C4.25331 4.79625 4.43006 4.86945 4.5765 5.01584L6.6975 7.13684C6.83961 7.28398 6.90978 7.45983 6.908 7.66439C6.90622 7.86895 6.83301 8.04355 6.68836 8.1882C6.54371 8.33285 6.36911 8.40606 6.16455 8.40784C5.95999 8.40962 5.78414 8.33945 5.637 8.19734L3.516 6.07634C3.36961 5.9299 3.29641 5.75315 3.29641 5.54609C3.29641 5.33903 3.36961 5.16228 3.516 5.01584ZM20.487 5.01584C20.6334 5.16228 20.7066 5.33903 20.7066 5.54609C20.7066 5.75315 20.6334 5.9299 20.487 6.07634L18.366 8.19734C18.2204 8.34815 18.0427 8.42446 17.833 8.42628C17.6234 8.4281 17.4445 8.35489 17.2962 8.20664C17.148 8.05839 17.0747 7.87944 17.0766 7.66979C17.0784 7.46014 17.1547 7.28249 17.3055 7.13684L19.4265 5.01584C19.5729 4.86945 19.7497 4.79625 19.9568 4.79625C20.1638 4.79625 20.3406 4.86945 20.487 5.01584ZM12.0015 9.00134C12.8055 9.00109 13.5556 9.20188 14.252 9.60371C14.9483 10.0055 15.4976 10.5545 15.8997 11.2507C16.3018 11.9469 16.5028 12.697 16.5029 13.501C16.5029 14.305 16.302 15.0551 15.9 15.7513L8.1015 15.7513C7.69945 15.055 7.49849 14.3047 7.49861 13.5006C7.49874 12.6965 7.69995 11.9463 8.10222 11.2501C8.5045 10.5538 9.05392 10.0049 9.75049 9.60314C10.4471 9.20143 11.1974 9.00082 12.0015 9.00134ZM17.5665 15.7513C18.3628 13.7794 18.1663 11.912 16.9769 10.1491C15.7876 8.38615 14.1296 7.50468 12.003 7.50468C9.87639 7.50468 8.21841 8.38615 7.02907 10.1491C5.83973 11.912 5.64321 13.7794 6.4395 15.7513L0.75 15.7513C0.542893 15.7513 0.366117 15.8246 0.21967 15.971C0.0732233 16.1175 0 16.2942 0 16.5013C0 16.7084 0.0732233 16.8852 0.21967 17.0317C0.366117 17.1781 0.542893 17.2513 0.75 17.2513L23.25 17.2513C23.4571 17.2513 23.6339 17.1781 23.7803 17.0317C23.9268 16.8852 24 16.7084 24 16.5013C24 16.2942 23.9268 16.1175 23.7803 15.971C23.6339 15.8246 23.4571 15.7513 23.25 15.7513L17.5665 15.7513ZM0.00149998 13.5013C0.00149996 13.2942 0.0747232 13.1175 0.22117 12.971C0.367616 12.8246 0.544393 12.7513 0.7515 12.7513L3.7515 12.7513C3.95861 12.7513 4.13538 12.8246 4.28183 12.971C4.42828 13.1175 4.5015 13.2942 4.5015 13.5013C4.5015 13.7084 4.42828 13.8852 4.28183 14.0317C4.13538 14.1781 3.95861 14.2513 3.7515 14.2513L0.7515 14.2513C0.544393 14.2513 0.367616 14.1781 0.22117 14.0317C0.0747233 13.8852 0.00149998 13.7084 0.00149998 13.5013ZM19.5015 13.5013C19.5015 13.2942 19.5747 13.1175 19.7212 12.971C19.8676 12.8246 20.0444 12.7513 20.2515 12.7513L23.2515 12.7513C23.4586 12.7513 23.6354 12.8246 23.7818 12.971C23.9283 13.1175 24.0015 13.2942 24.0015 13.5013C24.0015 13.7084 23.9283 13.8852 23.7818 14.0317C23.6354 14.1781 23.4586 14.2513 23.2515 14.2513L20.2515 14.2513C20.0444 14.2513 19.8676 14.1781 19.7212 14.0317C19.5747 13.8852 19.5015 13.7084 19.5015 13.5013Z" fill-rule="nonzero" transform="matrix(1 0 0 1 7.9985 9.49866)" fill="rgb(22, 163, 74)"/>
		</g>
	</g>
</svg>
